# xmcd
#
# Track frame offsets: 
#        182
#        13425
#        25152
#        35572
#        54402
#        64815
#        79012
#        86120
#        98977
#        106345
#        113812
#        124835
#        135357
#        142692
#        149802
#        162147
#        172602
#        185417
#        191735
#        200527
#        211527
#
# Disc length: 2896 seconds
#
# Revision: 2
# Processed by: cddbd v1.5.2PL0 Copyright (c) Steve Scherf et al.
# Submitted via: ExactAudioCopy v0.99pb5
#
DISCID=210b4e15
DTITLE=Vienna Philharmonic - ~11893-Brahms, Johannes - Hungarian Danc
DTITLE=es - Nos. 1-21
DYEAR=1984
DGENRE=Classical - Orchestral
TTITLE0=Hungarian Dance No.1 in G minor
TTITLE1=Hungarian Dance No.2 in D minor
TTITLE2=Hungarian Dance No.3 in F
TTITLE3=Hungarian Dance No.4 in F sharp minor
TTITLE4=Hungarian Dance No.5 in G minor
TTITLE5=Hungarian Dance No.6 in D flat
TTITLE6=Hungarian Dance No.7 in F Hungarian Dance No. 7 in A
TTITLE7=Hungarian Dance No.8 in A minor
TTITLE8=Hungarian Dance No.9 in E minor
TTITLE9=Hungarian Dance No.10 in F
TTITLE10=Hungarian Dance No.11 in D minor
TTITLE11=Hungarian Dance No.12 in D minor
TTITLE12=Hungarian Dance No.13 in D
TTITLE13=Hungarian Dance No.14 in D minor
TTITLE14=Hungarian Dance No.15 in B flat
TTITLE15=Hungarian Dance No.16 in F minor - major
TTITLE16=Hungarian Dance No.17 in F sharp minor
TTITLE17=Hungarian Dance No.18 in D
TTITLE18=Hungarian Dance No.19 in B minor
TTITLE19=Hungarian Dance No.20 in E minor
TTITLE20=Hungarian Dance No.21 in E minor
EXTD=
EXTT0=
EXTT1=
EXTT2=
EXTT3=
EXTT4=
EXTT5=
EXTT6=
EXTT7=
EXTT8=
EXTT9=
EXTT10=
EXTT11=
EXTT12=
EXTT13=
EXTT14=
EXTT15=
EXTT16=
EXTT17=
EXTT18=
EXTT19=
EXTT20=
PLAYORDER=
